<svg width="180" height="35" viewBox="0 0 180 35" fill="none" xmlns="http://www.w3.org/2000/svg">
<path d="M34.0373 0.277344C24.6538 0.277344 17.0469 7.88428 17.0469 17.2677C17.0469 26.6512 24.6538 34.2581 34.0373 34.2581C43.4207 34.2581 51.0276 26.6512 51.0276 17.2677C51.0276 7.88428 43.4207 0.277344 34.0373 0.277344ZM34.0373 25.7524C29.4047 25.7524 25.65 21.997 25.65 17.3651C25.65 12.7332 29.4054 8.97781 34.0373 8.97781C38.6691 8.97781 42.4246 12.7332 42.4246 17.3651C42.4246 21.997 38.6691 25.7524 34.0373 25.7524Z" fill="url(#paint0_linear_2433_21132)"/>
<path d="M59.9103 0.894531C59.0676 0.894531 58.3839 1.57814 58.3839 2.42088V18.8499C58.3839 20.522 57.7831 21.9567 56.5769 23.1597C55.5075 24.2265 54.3523 24.6567 53.5083 24.8261C52.7916 24.9699 52.2734 25.5924 52.2734 26.3231C52.2734 27.8813 52.2734 30.3955 52.2734 32.0358C52.2734 32.9473 53.0684 33.6589 53.9736 33.552C57.2974 33.1612 60.401 31.6412 62.737 29.2982C65.6491 26.3779 67.0685 22.6027 67.0685 18.8276L67.0882 2.42279C67.0895 1.57878 66.4052 0.894531 65.5619 0.894531H59.909H59.9103Z" fill="url(#paint1_linear_2433_21132)"/>
<path d="M86.2279 0.258442C76.7273 0.177605 69.0096 7.8953 69.0905 17.3959C69.1681 26.5571 76.7719 34.1609 85.9332 34.2386C95.4337 34.3194 103.151 26.6017 103.071 17.1011C102.993 7.94049 95.3892 0.336733 86.2279 0.258442ZM83.0651 8.8768L93.9163 15.951C94.8259 16.5442 94.8475 17.8681 93.9583 18.4907L83.1071 26.0849C82.0912 26.7958 80.6953 26.0689 80.6953 24.829V10.16C80.6953 8.94299 82.0454 8.21101 83.0651 8.87616V8.8768Z" fill="url(#paint2_linear_2433_21132)"/>
<path d="M7.81005 0.894531C6.96731 0.894531 6.28369 1.57814 6.28369 2.42088V18.8499C6.28369 20.522 5.68283 21.9567 4.47664 23.1597C3.4073 24.2265 2.25204 24.6567 1.40802 24.8261C0.691948 24.9693 0.173828 25.5924 0.173828 26.3231C0.173828 27.8813 0.173828 30.3955 0.173828 32.0358C0.173828 32.9473 0.96883 33.6589 1.87395 33.552C5.19781 33.1612 8.30143 31.6412 10.6374 29.2982C13.5495 26.3779 14.9689 22.6027 14.9689 18.8276L14.9886 2.42279C14.9899 1.57878 14.3056 0.894531 13.4623 0.894531H7.80941H7.81005Z" fill="url(#paint3_linear_2433_21132)"/>
<rect x="108.963" y="0.257812" width="70.8659" height="34.0001" rx="5.91123" fill="url(#paint4_linear_2433_21132)"/>
<path d="M155.682 19.2435C155.682 17.9876 155.939 16.8755 156.453 15.9071C156.983 14.9388 157.694 14.1898 158.587 13.6602C159.495 13.1155 160.501 12.8431 161.605 12.8431C162.423 12.8431 163.225 13.0247 164.011 13.3879C164.813 13.7359 165.449 14.2049 165.918 14.795V8.75781H168.528V25.553H165.918V23.6693C165.494 24.2745 164.904 24.7738 164.148 25.1672C163.406 25.5606 162.551 25.7573 161.583 25.7573C160.493 25.7573 159.495 25.485 158.587 24.9403C157.694 24.3804 156.983 23.6087 156.453 22.6252C155.939 21.6266 155.682 20.4993 155.682 19.2435ZM165.918 19.2889C165.918 18.4264 165.736 17.6774 165.373 17.0419C165.025 16.4065 164.564 15.9223 163.989 15.5894C163.414 15.2565 162.793 15.0901 162.128 15.0901C161.462 15.0901 160.841 15.2565 160.266 15.5894C159.691 15.9071 159.222 16.3838 158.859 17.0193C158.511 17.6396 158.337 18.381 158.337 19.2435C158.337 20.1059 158.511 20.8625 158.859 21.5131C159.222 22.1637 159.691 22.6631 160.266 23.0111C160.856 23.3439 161.477 23.5104 162.128 23.5104C162.793 23.5104 163.414 23.3439 163.989 23.0111C164.564 22.6782 165.025 22.194 165.373 21.5585C165.736 20.9079 165.918 20.1513 165.918 19.2889Z" fill="url(#paint5_linear_2433_21132)"/>
<path d="M153.648 8.75781V25.553H151.061V8.75781H153.648Z" fill="url(#paint6_linear_2433_21132)"/>
<path d="M142.51 25.7579C141.33 25.7579 140.263 25.4931 139.31 24.9636C138.357 24.4188 137.608 23.6623 137.063 22.6939C136.518 21.7104 136.246 20.5756 136.246 19.2895C136.246 18.0185 136.526 16.8913 137.086 15.9077C137.646 14.9242 138.41 14.1677 139.378 13.6381C140.347 13.1085 141.429 12.8438 142.624 12.8438C143.819 12.8438 144.901 13.1085 145.87 13.6381C146.838 14.1677 147.602 14.9242 148.162 15.9077C148.722 16.8913 149.002 18.0185 149.002 19.2895C149.002 20.5605 148.714 21.6877 148.139 22.6712C147.564 23.6547 146.777 24.4188 145.779 24.9636C144.795 25.4931 143.706 25.7579 142.51 25.7579ZM142.51 23.511C143.176 23.511 143.797 23.3521 144.372 23.0344C144.962 22.7166 145.438 22.24 145.801 21.6045C146.165 20.969 146.346 20.1973 146.346 19.2895C146.346 18.3816 146.172 17.6175 145.824 16.9972C145.476 16.3617 145.015 15.885 144.44 15.5673C143.865 15.2496 143.244 15.0907 142.578 15.0907C141.913 15.0907 141.292 15.2496 140.717 15.5673C140.158 15.885 139.711 16.3617 139.378 16.9972C139.045 17.6175 138.879 18.3816 138.879 19.2895C138.879 20.6361 139.219 21.6802 139.9 22.4216C140.596 23.1479 141.466 23.511 142.51 23.511Z" fill="url(#paint7_linear_2433_21132)"/>
<path d="M131.441 14.3177C131.033 13.5309 130.465 12.9408 129.739 12.5474C129.012 12.1389 128.173 11.9346 127.219 11.9346C126.175 11.9346 125.245 12.1692 124.428 12.6382C123.611 13.1073 122.968 13.773 122.499 14.6355C122.045 15.4979 121.818 16.4966 121.818 17.6314C121.818 18.7662 122.045 19.7724 122.499 20.65C122.968 21.5125 123.611 22.1782 124.428 22.6473C125.245 23.1163 126.175 23.3509 127.219 23.3509C128.627 23.3509 129.769 22.9575 130.647 22.1706C131.524 21.3838 132.061 20.3171 132.258 18.9705H126.334V16.9051H135.027V18.9251C134.861 20.1507 134.422 21.2779 133.711 22.3068C133.015 23.3357 132.099 24.1604 130.964 24.7807C129.845 25.386 128.596 25.6886 127.219 25.6886C125.737 25.6886 124.382 25.3481 123.157 24.6672C121.931 23.9712 120.955 23.0104 120.229 21.7848C119.518 20.5592 119.162 19.1747 119.162 17.6314C119.162 16.088 119.518 14.7036 120.229 13.478C120.955 12.2524 121.931 11.2991 123.157 10.6182C124.397 9.92223 125.752 9.57422 127.219 9.57422C128.899 9.57422 130.389 9.99032 131.691 10.8225C133.007 11.6396 133.96 12.8047 134.551 14.3177H131.441Z" fill="url(#paint8_linear_2433_21132)"/>
<defs>
<linearGradient id="paint0_linear_2433_21132" x1="33.9855" y1="-2.00031" x2="33.9855" y2="39.7034" gradientUnits="userSpaceOnUse">
<stop stop-color="#0B0B0B"/>
<stop offset="1" stop-color="#252525"/>
</linearGradient>
<linearGradient id="paint1_linear_2433_21132" x1="59.6583" y1="-1.29514" x2="59.6583" y2="38.7975" gradientUnits="userSpaceOnUse">
<stop stop-color="#0B0B0B"/>
<stop offset="1" stop-color="#252525"/>
</linearGradient>
<linearGradient id="paint2_linear_2433_21132" x1="86.0288" y1="-2.01988" x2="86.0288" y2="39.6845" gradientUnits="userSpaceOnUse">
<stop stop-color="#0B0B0B"/>
<stop offset="1" stop-color="#252525"/>
</linearGradient>
<linearGradient id="paint3_linear_2433_21132" x1="7.55866" y1="-1.29514" x2="7.55865" y2="38.7975" gradientUnits="userSpaceOnUse">
<stop stop-color="#0B0B0B"/>
<stop offset="1" stop-color="#252525"/>
</linearGradient>
<linearGradient id="paint4_linear_2433_21132" x1="108.963" y1="17.2579" x2="179.829" y2="17.2579" gradientUnits="userSpaceOnUse">
<stop stop-color="#0B0B0B"/>
<stop offset="1" stop-color="#252525"/>
</linearGradient>
<linearGradient id="paint5_linear_2433_21132" x1="156.26" y1="25.741" x2="172.012" y2="13.4721" gradientUnits="userSpaceOnUse">
<stop offset="0.199559" stop-color="#FAAF3F"/>
<stop offset="0.487076" stop-color="#FFD691"/>
<stop offset="0.818641" stop-color="#FAAF3F"/>
</linearGradient>
<linearGradient id="paint6_linear_2433_21132" x1="151.177" y1="25.5369" x2="156.149" y2="24.7474" gradientUnits="userSpaceOnUse">
<stop offset="0.199559" stop-color="#FAAF3F"/>
<stop offset="0.487076" stop-color="#FFD691"/>
<stop offset="0.818641" stop-color="#FAAF3F"/>
</linearGradient>
<linearGradient id="paint7_linear_2433_21132" x1="136.821" y1="25.7455" x2="149.16" y2="13.1831" gradientUnits="userSpaceOnUse">
<stop offset="0.199559" stop-color="#FAAF3F"/>
<stop offset="0.487076" stop-color="#FFD691"/>
<stop offset="0.818641" stop-color="#FAAF3F"/>
</linearGradient>
<linearGradient id="paint8_linear_2433_21132" x1="119.877" y1="25.6731" x2="135.275" y2="10.0475" gradientUnits="userSpaceOnUse">
<stop offset="0.199559" stop-color="#FAAF3F"/>
<stop offset="0.487076" stop-color="#FFD691"/>
<stop offset="0.818641" stop-color="#FAAF3F"/>
</linearGradient>
</defs>
</svg>
